<svg xmlns="http://www.w3.org/2000/svg" height="48" viewBox="0 -960 960 960" width="48"><path d="M343-354q-107 0-180.5-74.167Q89-502.333 89-607q0-21 4-37.5t10-37.5q4-9 11.562-15.083Q122.125-703.167 132-706q8-1 17 1t18.142 10.142L274-587l94-88-112.858-112.858Q248-796 245-804.982q-3-8.982 0-18.018 1.85-8.27 7.975-15.662 6.125-7.392 16.375-11.987Q288-856 305-861q17-5 38-5 107.667 0 182.833 75.458Q601-715.083 601-607q0 22.719-3 44.359Q595-541 586-519l237 235q32 34 31 79.5T820-128q-31.947 32-75.973 31Q700-98 668-130L430-369q-21 9-40.82 12-19.821 3-46.18 3Z"/></svg>