<svg xmlns="http://www.w3.org/2000/svg" height="48" viewBox="0 -960 960 960" width="48"><path d="M817.29-57.71 56.71-817.29Q46-827.333 47-841.167 48-855 57.263-864.5q9.842-10.5 24-10.5T105-864l759.312 759.312Q875-94.728 874-80.864T863.737-57.5Q853.474-47 840.237-47T817.29-57.71ZM620-436q-15.634 0-28.817-16.241T578-483.446Q578-499 588.744-512.5 599.488-526 620-526h74q18.6 0 31.8 13.65 13.2 13.651 13.2 32.771 0 18.695-12.5 31.137T694-436h-74ZM386-676q-19.098 0-32.549-13.088Q340-702.175 340-721.303 340-739 352.317-753T386-767h431q18.6 0 31.8 13.65 13.2 13.651 13.2 32.683 0 18.608-12.5 31.637Q837-676 817-676H386Zm44 481q-19.575 0-32.788-12.612Q384-220.225 384-238.825t12.625-32.887Q409.25-286 430-286h102q18 0 31.5 14.238t13.5 33.271q0 18.607-13.6 31.049T531-195H430ZM265-436q-18.125 0-31.062-12.612Q221-461.225 221-479.912q0-18.688 13.312-32.388Q247.625-526 266-526h173v90H265ZM144-676q-19.7 0-32.35-13.2Q99-702.4 99-721t12.625-32.3Q124.25-767 145-767h54v91h-55Z"/></svg>