<svg xmlns="http://www.w3.org/2000/svg" height="48" viewBox="0 -960 960 960" width="48"><path d="M430-195q-19.575 0-32.788-12.612Q384-220.225 384-238.825t12.625-32.887Q409.25-286 430-286h102q18 0 31.5 14.238t13.5 33.271q0 18.607-13.6 31.049T531-195H430ZM265-436q-18.125 0-31.062-12.612Q221-461.225 221-479.912q0-18.688 12.637-32.388Q246.275-526 265-526h429q18.6 0 31.8 13.65 13.2 13.651 13.2 32.771 0 18.695-12.5 31.137T694-436H265ZM144-676q-19.7 0-32.35-13.2Q99-702.4 99-721t12.625-32.3Q124.25-767 145-767h672q18.6 0 31.8 13.65 13.2 13.651 13.2 32.683 0 18.608-13.175 31.637Q835.65-676 816-676H144Z"/></svg>