<svg xmlns="http://www.w3.org/2000/svg" height="48" viewBox="0 -960 960 960" width="48"><path d="M36-230q-20.75 0-33.375-12.625T-10-276.361v-16.784q0-42.649 43.5-69.752Q77-390 150.376-390H164q7 0 13 .652-9 20.348-14.5 40.53-5.5 20.183-5.5 43.642V-230H36Zm240 0q-20.75 0-33.375-12.625T230-276v-29.132q0-35.448 17.97-63.858 17.969-28.41 51-49.21Q333-438 379.188-449t100.41-11q55.323 0 101.513 11 46.19 11 79.889 31 33 21 51 49t18 64.368v28.251q0 21.131-12.612 33.756Q704.775-230 685-230H276Zm527 0v-75.571q0-23.029-5-44.099-5-21.069-13-39.603 6-.727 12.314-.727H810q73.9 0 116.95 26.418Q970-337.165 970-293.284V-276q0 20.75-12.612 33.375Q944.775-230 925-230H803ZM149.824-418Q119-418 96.5-440.273 74-462.546 74-493.632 74-526 96.567-548t53.363-22Q181-570 204-548.04t23 54.508Q227-463 204.336-440.5 181.673-418 149.824-418Zm660 0Q779-418 756.5-440.273 734-462.546 734-493.632 734-526 756.567-548t53.363-22Q841-570 864-548.04t23 54.508Q887-463 864.336-440.5 841.673-418 809.824-418Zm-328.862-72q-53.342 0-92.152-38.354T350-620.07q0-54.93 38.81-92.43 38.81-37.5 92.152-37.5 54.909 0 91.973 37.268Q610-675.465 610-620.256q0 53.636-37.065 91.946Q535.871-490 480.962-490Z"/></svg>