<svg xmlns="http://www.w3.org/2000/svg" height="48" viewBox="0 -960 960 960" width="48"><path d="M479.956-493q-76.826 0-124.391-48.065Q308-589.13 308-665.296q0-76.167 47.406-123.935Q402.812-837 479.637-837q76.826 0 125.094 47.656Q653-741.688 653-664.796q0 75.666-48.109 123.731Q556.781-493 479.956-493ZM138-221v-24.606q0-43.866 22.445-76.846Q182.891-355.432 220-372q68-32 131.854-47 63.854-15 127.731-15 65.877 0 128.646 16Q671-402 739-372q38.375 15.402 61.188 48.465Q823-290.472 823-245.606V-221q0 38.4-26.769 64.7Q769.463-130 731-130H229q-38.05 0-64.525-26.3Q138-182.6 138-221Z"/></svg>