<svg xmlns="http://www.w3.org/2000/svg" height="48" viewBox="0 -960 960 960" width="48"><path d="M775-91 416-447q-36 9-66 26.5T294-384q-21 14-43 14.5T212-384q-16-16-15.5-39t17.5-38q26-21 52.5-39t65.5-33l-90-90q-33 19-60.5 37.5T128-547q-17 15-40.5 14.5T48-549q-16-15-14.5-38T52-625q26-23 53.5-42.5T161-702l-70-69q-9-9-9.5-23t9.5-26q11-10 25-10t26 10l681 683q9 9 9 23.5T823-91q-11 11-25 11t-23-11Zm-295-45q-37 0-63.5-26.5T390-225q0-36 26.5-63t63.5-27q37 0 63.5 27t26.5 63q0 36-26.5 62.5T480-136Zm282-261q-12 12-29.5 12T703-395q-23-19-44-33.5T607-455L505-558q80 5 139.5 32T757-453q12 12 13 29t-8 27Zm151-151q-16 16-39.5 16.5T830-546q-78-63-163.5-100.5T480-684q-27 0-50 5t-38 8l-93-93q42-14 85.5-21t95.5-7q125 0 234 46.5T911-621q17 14 17 36t-15 37Z"/></svg>