<svg xmlns="http://www.w3.org/2000/svg" height="48" viewBox="0 -960 960 960" width="48"><path d="M356-250h249q15.15 0 24.575-10.079 9.425-10.079 9.425-24.5T629.575-309Q620.15-319 605-319H355q-15.6 0-24.8 9.781-9.2 9.78-9.2 24.5Q321-270 330.7-260q9.7 10 25.3 10Zm0-169h250q14.6 0 24.3-10.079 9.7-10.079 9.7-24.5t-9.7-23.921q-9.7-9.5-24.3-9.5H355q-15.6 0-24.8 9.395-9.2 9.394-9.2 23.816 0 14.421 9.7 24.605Q340.4-419 356-419ZM229-59q-35.775 0-63.388-26.912Q138-112.825 138-150v-660q0-37.588 27.612-64.794Q193.225-902 229-902h326q18.54 0 35.904 7.587Q608.268-886.826 620-874l174 173q12.913 13.571 20.957 30.487Q823-653.597 823-634v484q0 37.175-27.906 64.088Q767.188-59 731-59H229Zm316-615q0 20.75 12.625 33.375T591-628h140L545-810v136Z"/></svg>