<svg xmlns="http://www.w3.org/2000/svg" height="48" viewBox="0 -960 960 960" width="48"><path d="M478.282-139Q335-139 235.5-238.5T136-480q0-142 99.5-242t242.879-100q88.913 0 158.767 36T757-683v-105q0-14.025 8.782-24.013 8.783-9.987 24.7-9.987 14.918 0 25.218 9.987Q826-802.025 826-788v205q0 19.6-13.975 32.8Q798.05-537 779-537H573q-13.6 0-23.3-10.265-9.7-10.265-9.7-24.7 0-14.01 9.987-23.522Q559.975-605 574-605h128q-40-58-94.401-92-54.4-34-129.599-34-104.75 0-177.875 72.799T227-480.118q0 105.451 73.125 177.785Q373.25-230 478-230q67 0 125.215-33.13Q661.431-296.26 695-356q11.622-16.16 28.811-22.08Q741-384 758.806-377 777-371 783.5-354.5T782-323q-44 85-125.778 134.5-81.777 49.5-177.94 49.5Z"/></svg>