<svg xmlns="http://www.w3.org/2000/svg" height="48" viewBox="0 -960 960 960" width="48"><path d="m264-572 178-288q6-10 17-15.5t22-5.5q11 0 21.375 5.289Q512.75-870.421 520-860l179 288q6 11 5.5 23.5t-5.625 23.948q-5.125 10.449-16.15 16.5Q671.7-502 659-502H302q-12.814 0-23.925-6.177-11.111-6.176-14.95-16.375Q257-536 256.5-548.5T264-572ZM726-39q-82.917 0-139.458-56.25Q530-151.5 530-234.588t56.662-140.75Q643.324-433 726.412-433t139.338 57.542Q922-317.917 922-235q0 82.083-56.958 139.042Q808.083-39 726-39ZM65-111v-257q0-18.775 12.625-32.388Q90.25-414 112-414h257q19.775 0 32.388 13.612Q414-386.775 414-368v257q0 21.75-12.612 34.375Q388.775-64 369-64H112q-21.75 0-34.375-12.625T65-111Z"/></svg>