<svg xmlns="http://www.w3.org/2000/svg" height="48" viewBox="0 -960 960 960" width="48"><path d="M143-193q-18.65 0-31.325-13.36Q99-219.719 99-239.088q0-19.368 12.175-32.64Q123.35-285 143-285h185q18.525 0 31.763 13.491Q373-258.018 373-237.763q0 20.254-12.737 32.509Q347.525-193 328-193H143Zm0-242q-18.65 0-31.325-12.658T99-480.386q0-19.07 12.175-31.842Q123.35-525 143-525h428q19.525 0 32.762 13.468Q617-498.064 617-478.561q0 20.077-12.738 31.819Q591.525-435 571-435H143Zm0-240q-18.65 0-31.325-13.36Q99-701.719 99-721.175q0-20.457 12.625-32.641Q124.25-766 145-766h672q18.525 0 31.762 12.991Q862-740.018 862-719.263q0 19.754-13.175 32.009Q835.65-675 816-675H143Z"/></svg>