<svg xmlns="http://www.w3.org/2000/svg" height="48" viewBox="0 -960 960 960" width="48"><path d="M103-179q-18.65 0-31.325-12.86Q59-204.719 59-224.675q0-19.957 12.375-32.141Q83.75-269 103-269h319q19.125 0 32.062 13.191Q467-242.618 467-223.263q0 20.754-12.175 32.509Q442.65-179 422-179H103Zm0-218q-18.65 0-31.325-12.658T59-441.974q0-19.658 11.95-31.842Q82.9-486 104-486h150q18.525 0 31.763 13.08Q299-459.839 299-440.649q0 20.165-12.938 31.907Q273.125-397 254-397H103Zm0-217q-18.65 0-31.325-12.86Q59-639.719 59-659.675q0-19.957 11.95-32.641Q82.9-705 104-705h150q18.525 0 31.763 13.479Q299-678.043 299-658.263q0 20.754-12.938 32.509Q273.125-614 254-614H103Zm472.071 295q-87.806 0-147.938-60.913Q367-440.827 367-530.231q0-87.405 60.433-150.087Q487.866-743 574.433-743 661-743 722-680.612 783-618.225 783-531q0 33.64-9.5 63.32T746-413l129 132q11 13.556 10.5 28.278T874-226.5Q863-215 847.3-215T818-227L691.48-358q-26.607 20-55.891 29.5-29.283 9.5-60.518 9.5Zm-.806-80q53.402 0 92.068-37.871Q705-474.743 705-530.559t-38.211-94.129Q628.578-663 575.706-663 521-663 483.5-624.62T446-531.412q0 56.162 37.14 94.287Q520.279-399 574.265-399Z"/></svg>