<svg xmlns="http://www.w3.org/2000/svg" height="48" viewBox="0 -960 960 960" width="48"><path d="M190-59q-37.8 0-64.4-26.6Q99-112.2 99-150v-477q-18-10.435-29-29.605Q59-675.776 59-700v-110q0-38.213 26.6-65.106Q112.2-902 150-902h660q38.213 0 65.106 26.894Q902-848.213 902-810v110q0 24.224-11.5 43.297Q879-637.63 862-627v477q0 37.8-26.894 64.4Q808.213-59 770-59H190Zm-40-640h662v-111H150v111Zm237 293h187q15.45 0 27.225-11.268Q613-428.536 613-444.281 613-459 601.225-470.5 589.45-482 574-482H387q-15.625 0-26.812 11.781-11.188 11.78-11.188 27Q349-428 360.188-417q11.187 11 26.812 11Z"/></svg>