<svg xmlns="http://www.w3.org/2000/svg" height="48" viewBox="0 -960 960 960" width="48"><path d="M253-99q-38.212 0-65.106-26.6Q161-152.2 161-190v-552h-11q-18.75 0-31.375-12.86Q106-767.719 106-787.36 106-807 118.613-820q12.612-13 31.387-13h181q0-20 12.625-33.5T377-880h204q20.75 0 34.052 13.75 13.303 13.75 13.303 33.25h180.6q20.245 0 33.145 13.375 12.9 13.376 12.9 32.116 0 20.141-12.9 32.825Q829.2-742 809-742h-11v552q0 37.8-26.894 64.4Q744.213-99 706-99H253Zm140.658-169q14.942 0 26.142-10.95T431-304v-325q0-14.525-11.288-25.762Q408.424-666 393.825-666q-15.45 0-26.137 11.238Q357-643.525 357-629v325q0 14.1 10.858 25.05 10.858 10.95 25.8 10.95Zm173.693 0q14.249 0 25.949-10.95Q605-289.9 605-304v-325q0-14.525-11.545-25.762Q581.91-666 566.93-666q-14.555 0-25.742 11.238Q530-643.525 530-629v325q0 14.1 11.551 25.05 11.551 10.95 25.8 10.95Z"/></svg>