<svg xmlns="http://www.w3.org/2000/svg" height="48" viewBox="0 -960 960 960" width="48"><path d="M647-696q-18.475 0-29.737-11.175Q606-718.351 606-736.684q0-16.334 11.263-27.825Q628.525-776 647-776h180q16.475 0 28.237 11.667 11.763 11.666 11.763 28Q867-718 855.237-707 843.475-696 827-696H647ZM480-215l-175 74q-45 19-86-7.361T178-225v-550q0-38.213 26.6-65.106Q231.2-867 269-867h262q19 0 30 19t3 39q-9 15-13.5 33.944Q546-756.111 546-737q0 68.604 41 119.302Q628-567 691-552q11 4.333 22.625 5.167Q725.25-546 737-546q18 0 32 10.811T783-507v282q0 50.278-41.5 76.639Q700-122 655-141l-175-74Z"/></svg>