<svg xmlns="http://www.w3.org/2000/svg" height="48" viewBox="0 -960 960 960" width="48"><path d="M555.737-397Q567-397 576-405.612q9-8.613 9-19.388v-104h102q11.8 0 20.4-8.358 8.6-8.358 8.6-19.8t-8.6-20.142q-8.6-8.7-20.4-8.7H585v-103q0-11.2-8.731-20.1-8.731-8.9-20.725-8.9-11.569 0-19.557 8.9Q528-700.2 528-689v103H424q-11.375 0-19.688 8.65Q396-568.699 396-556.825q0 11.45 8.312 19.637Q412.625-529 424-529h104v104q0 10.775 8.237 19.388 8.237 8.612 19.5 8.612ZM285-195q-36.413 0-63.706-27.612Q194-250.225 194-286v-542q0-36.188 27.294-64.094Q248.587-920 285-920h542q36.188 0 63.594 27.906T918-828v542q0 35.775-27.406 63.388Q863.188-195 827-195H285ZM134-44q-36.825 0-63.912-27.406Q43-98.812 43-135v-588q0-18.375 12.658-31.688Q68.316-768 88.158-768T121-754.688q13 13.313 13 31.688v588h587q18.8 0 32.4 12.675Q767-109.649 767-89.509t-13.6 32.825Q739.8-44 721-44H134Z"/></svg>