<svg xmlns="http://www.w3.org/2000/svg" height="48" viewBox="0 -960 960 960" width="48"><path d="M211-546h-40.581q-12.819 0-21.619-7.974-8.8-7.973-8.8-21.933 0-11.96 8.489-20.526Q156.978-605 169.961-605h69.717q11.722 0 20.522 8.5Q269-588 269-576v192q0 12.567-7.684 20.783-7.683 8.217-20.2 8.217-12.516 0-21.316-8.5Q211-372 211-385v-161Zm142 161v-79.609q0-17.791 10.3-28.591t29.051-10.8H484v-42H383.252q-14.119 0-22.185-7.974Q353-561.947 353-575.907q0-11.96 8.067-20.526Q369.133-605 383-605h121q17.55 0 28.275 10.3Q543-584.4 543-565.638v69.276q0 18.762-10.725 29.062T504-457h-92v43h102q13 0 21 7.974 8 7.973 8 20.933t-8 21.526Q527-355 514-355H383q-13.867 0-21.933-8.5Q353-372 353-385Zm407 30H641q-14 0-22-8.474-8-8.473-8-21.433 0-12.96 8-21.026Q627-414 641-414h100v-42.538h-66q-8.6 0-16.3-7.431Q651-471.4 651-480q0-8.6 7.7-16.3 7.7-7.7 16.3-7.7h66v-42H641q-14 0-22-7.974-8-7.973-8-21.933 0-11.96 8-20.526Q627-605 641-605h119q19.4 0 29.7 10.3T800-566v172q0 18.4-10.3 28.7T760-355Z"/></svg>