<svg xmlns="http://www.w3.org/2000/svg" height="48" viewBox="0 -960 960 960" width="48"><path d="M353.509-450q-21.141 0-33.825-12.625Q307-475.25 307-496v-233l-73 74q-14.25 13-32.783 13t-30.375-12.609Q157-667 157-686.4t13-32.6l151-150q6-6 14.52-10.5 8.519-4.5 18.113-4.5 8.594 0 16.981 4.5Q379-875 386-869l150 150q13 14.091 13 33.045 0 18.955-13 31.738Q522-642 503.545-642q-18.454 0-31.545-13l-73-74v233q0 20.75-13.175 33.375Q372.649-450 353.509-450ZM607.533-77Q598-77 589.5-81 581-85 575-91L425-241q-14-14.091-14-33.045 0-18.955 14-32.346 13.091-11.859 31.545-11.734Q475-318 489-306l72 73v-232q0-19.775 13.36-32.888Q587.719-511 607.86-511q20.14 0 32.64 13.112Q653-484.775 653-465v232l74-73q13.25-12 31.783-12t32.375 11.609Q803-292.6 803-273.2q0 19.4-12 31.2L640-91q-7 6.364-15.467 10.182-8.466 3.818-17 3.818Z"/></svg>