<svg xmlns="http://www.w3.org/2000/svg" height="48" viewBox="0 -960 960 960" width="48"><path d="M242-242h-98q-18.9 0-31.95-13.358T99-287.14q0-19.825 12.625-33.342Q124.25-334 145-334h143q18.25 0 32.125 13.875T334-288v144q0 18.9-13.468 31.95T287.307-99q-19.332 0-32.319-12.625Q242-124.25 242-145v-97Zm478 0v98q0 18.9-12.991 31.95T673.509-99Q653-99 640-111.625T627-145v-143q0-18.25 13.325-32.125T674.38-334H816q18.775 0 32.387 13.468Q862-307.064 862-287.307q0 19.332-13.613 32.319Q834.775-242 816-242h-96ZM242-720v-96q0-18.775 13.358-32.387Q268.716-862 287.14-862q19.825 0 33.342 13.613Q334-834.775 334-816v141.62q0 20.73-13.875 34.055T288-627H144q-18.9 0-31.95-13.56Q99-654.119 99-673.43q0-20.71 12.625-33.64T145-720h97Zm478 0h96q18.775 0 32.387 12.991Q862-694.018 862-673.509T848.387-640Q834.775-627 816-627H674.38q-20.73 0-34.055-13.325T627-674.38V-816q0-18.775 13.56-32.387Q654.119-862 673.43-862q20.71 0 33.64 13.613Q720-834.775 720-816v96Z"/></svg>