<svg xmlns="http://www.w3.org/2000/svg" height="48" viewBox="0 -960 960 960" width="48"><path d="M216-392h186v-76H216v76Zm542.706-72Q709-464 675-497.743q-34-33.742-34-83.375 0-50.215 34.208-84.049Q709.417-699 759-699q10.825 0 21.537 2.786Q791.25-693.429 801-691v-218h167v75h-90v253q0 49.583-34.794 83.292Q808.412-464 758.706-464ZM216-522h306v-77H216v77Zm0-131h306v-77H216v77Zm20 430L51-37v-770q0-37.213 26.6-64.606Q104.2-899 142-899h453q38.213 0 65.106 27.394Q687-844.213 687-807v53q-54 25-85 73t-31 108.5q0 53.5 33.146 98.098Q637.292-429.805 687-408v94q0 37.8-26.894 64.4Q633.213-223 595-223H236Z"/></svg>