<svg xmlns="http://www.w3.org/2000/svg" height="48" viewBox="0 -960 960 960" width="48"><path d="M806-60 653-211q-41 17-84.5 24t-88.5 7q-139 0-254-76.5T44-456q-6-10-8-21.5T34-500q0-11 2-22.5t8-21.5q24-43 53-84t66-75L40-823l48-50 763 763-45 50ZM480-333q12 0 22.5-2.5T525-342L320-545q-4 12-5.5 22.5T313-500q0 70 48.5 118.5T480-333Zm300 48L631-434q10-13 13-30.5t3-35.5q0-70-48.5-118.5T480-667q-18 0-35 3.5T414-652L286-781q47-21 97.5-30t101.5-9q139 0 252.5 77.5T917-542q6 10 8.5 20.5T928-500q0 11-3 21.5t-8 20.5q-25 49-59.5 94T780-285ZM556-510l-73-72q16-8 32.5-6.5T544-577q13 14 16.5 33t-4.5 34Z"/></svg>