<svg xmlns="http://www.w3.org/2000/svg" height="48" viewBox="0 -960 960 960" width="48"><path d="M107-99q-39.15 0-65.575-26.425Q15-151.85 15-190v-491q0-18.35 12.675-31.675Q40.351-726 60.675-726 80-726 93.5-712.675 107-699.35 107-681v491h709q19.75 0 32.875 13.375Q862-163.249 862-144.825 862-124 848.875-111.5 835.75-99 816-99H107Zm151-151q-38.15 0-64.575-26.425Q167-302.85 167-342v-468q0-38.15 26.425-65.075Q219.85-902 258-902h181q17.444 0 34.222 7.5Q490-887 503-874l53 52h298q38.15 0 64.575 26.925Q945-768.15 945-730v388q0 39.15-26.425 65.575Q892.15-250 854-250H258Zm262-224-54-62q-6-9-17.5-8.5T432-536l-49 56q-11 11-3.521 24.5T401-442h312q14.042 0 20.521-13Q740-468 732-480l-86-112q-6-9-18-9t-18 9l-90 118Z"/></svg>