<svg xmlns="http://www.w3.org/2000/svg" height="48" viewBox="0 -960 960 960" width="48"><path d="M720-326h184q19.75 0 32.375 13.675Q949-298.649 949-279.825 949-261 936.375-248T904-235h-74l80 81q13 13 13.5 32.158t-12.109 31Q898-77 878.033-76.5 858.067-76 846-90l-80-80v73q0 20.75-13.675 33.375Q738.649-51 719.825-51 701-51 688-63.625T675-97v-183q0-18.75 13.125-32.375T720-326ZM514-810v170q0 20.75 12.625 33.375T560-594h171L514-810Zm-285-92h305q18.444 0 35.722 7.5Q587-887 599-874l195 195q13 12 21 29.278T823-614v182q0 19.75-13.625 32.875T777-386H660q-18.75 0-31.875 13.625T615-340v235q0 20.75-13.625 33.375T569-59H229q-36 0-63.5-27T138-150v-660q0-37 27.5-64.5T229-902Z"/></svg>