<svg xmlns="http://www.w3.org/2000/svg" height="48" viewBox="0 -960 960 960" width="48"><path d="M190-190h97q20.175 0 33.588 12.991Q334-164.018 334-144.509 334-124 320.588-111.5 307.175-99 287-99H145q-20.75 0-33.375-12.625T99-145v-142q0-20.175 12.86-33.588Q124.719-334 144.93-334q19.21 0 32.14 13.412Q190-307.175 190-287v97Zm581 0v-97q0-20.175 12.658-33.588Q796.316-334 816.14-334q18.825 0 32.342 13.412Q862-307.175 862-287v142q0 20.75-13.175 33.375T816-99H674.38q-21.68 0-34.53-12.86Q627-124.719 627-144.93q0-19.21 13.125-32.14T674-190h97ZM190-771v97q0 21.3-12.991 34.15-12.991 12.85-32.5 12.85Q124-627 111.5-640.125T99-674.38V-816q0-19.65 12.625-32.825Q124.25-862 145-862h142q20.175 0 33.588 13.468Q334-835.064 334-815.807q0 19.832-13.412 32.32Q307.175-771 287-771h-97Zm581 0h-97q-21.3 0-34.15-12.658Q627-796.316 627-816.14q0-18.825 13.125-32.342Q653.25-862 674.38-862H816q19.65 0 32.825 13.175Q862-835.65 862-816v141.62q0 21.68-13.468 34.53Q835.064-627 815.807-627q-19.832 0-32.32-13.125Q771-653.25 771-674v-97Z"/></svg>